<svg width="93" height="24" fill="none" xmlns="http://www.w3.org/2000/svg"><path d="M.958 10.582A.959.959 0 0 1 0 9.624V1.958A.958.958 0 0 1 .958 1h7.668a.958.958 0 0 1 .958.958v7.666a.958.958 0 0 1-.958.958H.958Zm13.418 0a.958.958 0 0 1-.958-.958V1.958A.959.959 0 0 1 14.376 1h7.666a.958.958 0 0 1 .958.958v7.666a.958.958 0 0 1-.958.958h-7.666ZM.958 24A.959.959 0 0 1 0 23.042v-7.668a.958.958 0 0 1 .958-.958h7.668a.958.958 0 0 1 .958.958v7.668a.958.958 0 0 1-.958.958H.958Zm13.418 0a.958.958 0 0 1-.958-.958v-7.668a.958.958 0 0 1 .958-.958h7.666a.958.958 0 0 1 .958.958v7.668a.958.958 0 0 1-.958.958h-7.666Z" fill="#ED553B"/><path d="M91.47 9.667H65.53c-.845 0-1.53.822-1.53 1.837v.193c0 1.014.685 1.837 1.53 1.837h25.94c.845 0 1.53-.823 1.53-1.837v-.193c0-1.015-.685-1.837-1.53-1.837ZM91.47 19.333H65.53c-.845 0-1.53.822-1.53 1.837v.193c0 1.014.685 1.837 1.53 1.837h25.94c.845 0 1.53-.823 1.53-1.837v-.193c0-1.015-.685-1.837-1.53-1.837ZM91.47 0H65.53C64.686 0 64 .822 64 1.837v.193c0 1.014.685 1.837 1.53 1.837h25.94c.845 0 1.53-.823 1.53-1.837v-.193C93 .822 92.315 0 91.47 0Z" fill="#000"/></svg>