<svg width="18" height="14" fill="none" xmlns="http://www.w3.org/2000/svg"><path d="M17.472 1.656a7.021 7.021 0 0 1-2.024.553A3.534 3.534 0 0 0 16.997.261c-.692.41-1.448.699-2.236.855a3.524 3.524 0 0 0-6.004 3.212A9.987 9.987 0 0 1 1.494.646a3.495 3.495 0 0 0-.477 1.773c0 1.221.62 2.3 1.567 2.932A3.503 3.503 0 0 1 .99 4.909v.045a3.522 3.522 0 0 0 2.826 3.455 3.508 3.508 0 0 1-1.591.061 3.53 3.53 0 0 0 3.29 2.449 7.065 7.065 0 0 1-5.215 1.456 9.963 9.963 0 0 0 5.4 1.585c6.481 0 10.026-5.37 10.026-10.026 0-.15-.005-.305-.011-.456a7.216 7.216 0 0 0 1.758-1.821v-.001Z" fill="#fff"/></svg>