<svg width="17" height="16" fill="none" xmlns="http://www.w3.org/2000/svg"><path d="M5.294 0C2.754 0 .666 2.085.666 4.629v6.484c0 2.541 2.085 4.629 4.628 4.629h6.485c2.54 0 4.628-2.085 4.628-4.629V4.63c0-2.542-2.085-4.63-4.628-4.63H5.294Zm0 1.431h6.485a3.193 3.193 0 0 1 3.197 3.198v6.484a3.195 3.195 0 0 1-3.197 3.198H5.295a3.194 3.194 0 0 1-3.198-3.198V4.63A3.193 3.193 0 0 1 5.294 1.43Zm7.468 1.566a.645.645 0 0 0-.648.648c0 .36.288.648.648.648a.645.645 0 0 0 .6-.897.643.643 0 0 0-.6-.4Zm-4.226.58a4.306 4.306 0 0 0-4.293 4.294 4.306 4.306 0 0 0 4.293 4.293 4.306 4.306 0 0 0 4.294-4.293 4.306 4.306 0 0 0-4.293-4.293Zm0 1.432A2.85 2.85 0 0 1 11.4 7.87a2.85 2.85 0 0 1-2.862 2.862 2.85 2.85 0 0 1-2.863-2.862 2.85 2.85 0 0 1 2.862-2.862Z" fill="#fff"/></svg>