<svg width="14" height="14" fill="none" xmlns="http://www.w3.org/2000/svg"><path d="M4.698 0A4.293 4.293 0 0 0 .405 4.293v5.009a4.293 4.293 0 0 0 4.293 4.293h5.009A4.293 4.293 0 0 0 14 9.302V5.724a.716.716 0 0 0-.715-.715h-.716a.716.716 0 0 1-.716-.716A4.293 4.293 0 0 0 7.56 0H4.698Zm0 3.578H7.56c.394 0 .716.322.716.715a.718.718 0 0 1-.716.716H4.698a.718.718 0 0 1-.716-.716c0-.393.322-.715.716-.715Zm0 5.009h5.009c.393 0 .715.322.715.715a.718.718 0 0 1-.715.716H4.698a.718.718 0 0 1-.716-.716c0-.393.322-.715.716-.715Z" fill="#fff"/></svg>